<?xml version="1.0" encoding="UTF-8"?>
<svg id="Capa_2" data-name="Capa 2" xmlns="http://www.w3.org/2000/svg" viewBox="0 0 941.85 73.18">
  <defs>
    <style>
      .cls-1 {
        fill: #fff;
      }
    </style>
  </defs>
  <g id="Capa_1-2" data-name="Capa 1">
    <g>
      <path class="cls-1" d="M41.48,72.27v-2.85c7.75,0,8.46-3.67,5.3-11.72l-2.55-5.71h-24.77s-1.02,2.55-2.24,5.71c-2.96,8.36.1,11.72,7.85,11.72v2.85H0v-2.85c7.75,0,10.4-5.5,12.84-11.72L35.17.92h4.79l24.67,56.77c3.06,6.52,4.28,11.72,12.03,11.72v2.85h-35.17ZM42.5,47.91l-11.31-25.69-10.09,25.69h21.4Z"/>
      <path class="cls-1" d="M154.93.92v2.85c-7.85,0-9.07,2.96-9.07,11.72v56.77h-6.22L92.76,13.05v44.75c0,8.66,2.45,11.72,10.19,11.72v2.75h-23.24v-2.75c7.75,0,8.97-3.06,8.97-11.72V15.49c0-6.42-1.22-11.72-8.97-11.72V.92h27.11l35.06,43.63V15.49c0-8.77-2.45-11.72-10.19-11.72V.92h23.24Z"/>
      <path class="cls-1" d="M226.29,22.93h-3.26c-3.26-10.19-8.15-17.94-16.92-17.94h-5.3v52.8c0,6.42,1.73,11.72,9.48,11.72v2.75h-36.39v-2.75c7.75,0,9.58-5.3,9.58-11.72V5h-5.3c-8.77,0-13.76,7.75-16.92,17.94h-3.26l1.63-22.02h65.03l1.63,22.02Z"/>
      <path class="cls-1" d="M303.14,15.49v42.3c0,6.42,1.83,11.72,9.58,11.72v2.75h-36.39v-2.75c7.75,0,9.58-5.3,9.58-11.72v-19.16h-28.74v19.16c0,6.42,1.83,11.72,9.58,11.72v2.75h-36.39v-2.75c7.75,0,9.58-5.3,9.58-11.72V15.49c0-6.42-1.83-11.72-9.58-11.72V.92h36.39v2.85c-7.75,0-9.58,5.3-9.58,11.72v19.06h28.74V15.49c0-6.42-1.83-11.72-9.58-11.72V.92h36.39v2.85c-7.75,0-9.58,5.3-9.58,11.72Z"/>
      <path class="cls-1" d="M381.22,50.25l-1.63,22.02h-62.79v-2.75c7.75,0,9.58-5.3,9.58-11.72V15.49c0-6.42-1.83-11.72-9.58-11.72V.92h59.12l1.63,22.02h-3.16c-3.26-10.19-8.26-17.94-17.02-17.94h-13.76v29.56h1.33c8.77,0,14.47,0,15.39-12.74h2.75v29.56h-2.75c-.92-12.74-6.62-12.74-15.39-12.74h-1.33v29.66h17.43c8.77,0,13.66-7.75,16.92-18.04h3.26Z"/>
      <path class="cls-1" d="M424.75,72.27v-2.85c7.75,0,8.46-3.67,5.3-11.72l-2.55-5.71h-24.77s-1.02,2.55-2.24,5.71c-2.96,8.36.1,11.72,7.85,11.72v2.85h-25.07v-2.85c7.75,0,10.4-5.5,12.84-11.72L418.43.92h4.79l24.67,56.77c3.06,6.52,4.28,11.72,12.03,11.72v2.85h-35.17ZM425.77,47.91l-11.31-25.69-10.09,25.69h21.4Z"/>
      <path class="cls-1" d="M547.07,49.84l-1.63,23.34h-2.14c-1.53-5.91-11.01,0-22.63,0-23.44,0-39.55-15.7-39.55-36.59S495.8,0,519.85,0c11.62,0,21.1,5.91,22.63,0h2.14l1.63,22.93h-2.85c-2.65-12.44-9.38-19.98-23.55-19.06-12.13.71-20.08,11.72-20.08,32.72s8.77,32.31,20.9,32.82c14.17.61,20.89-7.03,23.54-19.57h2.85Z"/>
      <path class="cls-1" d="M591.61,72.27v-2.85c7.75,0,8.46-3.67,5.3-11.72l-2.55-5.71h-24.77s-1.02,2.55-2.24,5.71c-2.96,8.36.1,11.72,7.85,11.72v2.85h-25.07v-2.85c7.75,0,10.4-5.5,12.84-11.72L585.29.92h4.79l24.67,56.77c3.06,6.52,4.28,11.72,12.03,11.72v2.85h-35.17ZM592.63,47.91l-11.31-25.69-10.09,25.69h21.41Z"/>
      <path class="cls-1" d="M656.65,45.05v12.74c0,7.75,3.87,11.72,11.62,11.72v2.75h-38.43v-2.75c7.75,0,9.58-5.3,9.58-11.72V15.49c0-6.42-1.83-11.72-9.58-11.72V.92h28.74c22.83,0,34.35,7.75,34.35,22.12s-11.52,22.02-34.35,22.02h-1.94ZM656.65,5v35.98h1.53c12.03,0,16.72-6.93,16.72-17.94s-4.69-18.04-16.72-18.04h-1.53Z"/>
      <path class="cls-1" d="M721.88,15.49v42.3c0,6.42,1.83,11.72,9.58,11.72v2.75h-36.49v-2.75c7.85,0,9.58-5.3,9.58-11.72V15.49c0-6.42-1.73-11.72-9.58-11.72V.92h36.49v2.85c-7.75,0-9.58,5.3-9.58,11.72Z"/>
      <path class="cls-1" d="M803.84,22.93h-3.26c-3.26-10.19-8.15-17.94-16.92-17.94h-5.3v52.8c0,6.42,1.73,11.72,9.48,11.72v2.75h-36.39v-2.75c7.75,0,9.58-5.3,9.58-11.72V5h-5.3c-8.77,0-13.76,7.75-16.92,17.94h-3.26l1.63-22.02h65.03l1.63,22.02Z"/>
      <path class="cls-1" d="M839.21,72.27v-2.85c7.75,0,8.46-3.67,5.3-11.72l-2.55-5.71h-24.77s-1.02,2.55-2.24,5.71c-2.96,8.36.1,11.72,7.85,11.72v2.85h-25.07v-2.85c7.75,0,10.4-5.5,12.84-11.72L832.89.92h4.79l24.67,56.77c3.06,6.52,4.28,11.72,12.03,11.72v2.85h-35.17ZM840.23,47.91l-11.31-25.69-10.09,25.69h21.41Z"/>
      <path class="cls-1" d="M941.85,50.25l-1.63,22.02h-62.79v-2.75c7.75,0,9.58-5.3,9.58-11.72V15.49c0-6.42-1.83-11.72-9.58-11.72V.92h36.39v2.85c-7.75,0-9.58,5.3-9.58,11.72v52.8h17.43c8.77,0,13.76-7.75,16.92-18.04h3.26Z"/>
    </g>
  </g>
</svg>