<?xml version="1.0" encoding="UTF-8"?>
<svg id="Capa_2" data-name="Capa 2" xmlns="http://www.w3.org/2000/svg" viewBox="0 0 476.93 561.92">
  <defs>
    <style>
      .cls-1 {
        fill: #fff;
      }
    </style>
  </defs>
  <g id="Capa_1-2" data-name="Capa 1">
    <g>
      <path class="cls-1" d="M340.06,344.9c-4.3-10.47-11.54-23.04-23.69-36.42-3-3.3-6.3-6.65-9.92-10.03-8.14-7.09-19.45-15.48-31.36-23.79-13.71-9.56-28.2-19-39.52-26.22-12.15-7.74-20.67-12.92-20.67-12.92-1.89-1.21-3.71-2.42-5.47-3.64-18.74-12.91-30.53-25.93-37.94-37.38-3.32-5.14-5.77-9.96-7.56-14.33-2.07-4.62-3.53-9.57-4.28-14.76-.82-5.06-.58-8.02-.58-8.02,0-13.54,4.82-25.95,12.84-35.62-20.2,12.56-33.65,34.94-33.65,60.47,0,3.47.26,6.89.74,10.23.8,4.89,2.37,11.32,5.46,18.82,4.07,9.9,10.75,21.65,21.73,34.21,5.04,5.77,11,11.71,18.02,17.71,6.86,5.67,14.65,11.41,22.81,17.05,13.98,9.65,29.03,19.02,42.33,27.33,7.59,4.75,14.62,9.16,20.53,13.07,1.8,1.15,3.53,2.31,5.21,3.46,18.96,13.02,30.84,26.14,38.28,37.68,3.28,5.09,5.7,9.87,7.48,14.2,2.07,4.62,3.53,9.57,4.28,14.76.82,5.06.58,8.02.58,8.02,0,13.38-4.71,25.66-12.56,35.28,19.9-12.62,33.12-34.82,33.12-60.13,0-3.47-.26-6.89-.74-10.23-.8-4.89-2.37-11.32-5.46-18.82Z"/>
      <circle class="cls-1" cx="237.58" cy="42.28" r="14.62"/>
      <circle class="cls-1" cx="237.58" cy="522.29" r="14.62" transform="translate(-113.64 68.56) rotate(-13.28)"/>
      <path class="cls-1" d="M476.19,277.15l-77.37-25.74c-.61-.2-1.17.41-.92,1l8.94,20.82h-102.8c1.44-9.05,4.91-20.35,10.09-31.81,4.36-9.67,8.09-22.73,9.76-33.3,5.5-31.52-12.83-61.64-38.05-79.44-12.66-9.7-36.36-21.74-50.47-33.13-31.53-26.12-27.94-76.18,7.23-95.55-17.61,3.29-31.8,15.68-39.33,31.31h0c-5.89,10.29-8.94,24.34-8.94,36.23v140.48c2.85,2.78,5.92,5.52,9.19,8.19-.05-44.4-.11-85.86-.16-118.27,0-2.15,0-4.26,0-6.33,0-3.52-.01-6.93-.02-10.2,1.22,2.76,2.5,5.36,3.83,7.83.45.84.91,1.66,1.37,2.46,24.78,43.22,66.4,44.34,79.25,95.33,7.68,35.01-14.06,61.75-15.14,75,2.6,1.78,5.15,3.52,7.59,5.23,8.32,5.8,15.55,11.09,21.65,15.83h105l-8.98,20.82c-.26.59.31,1.21.92,1l77.37-25.74c.98-.33.98-1.71,0-2.04Z"/>
      <path class="cls-1" d="M316.74,397.7s0-.07,0-.11c0-.07,0-.16,0-.24,0-.08,0-.17,0-.26,0-.08,0-.17,0-.26,0-.12,0-.24-.02-.38,0-.09-.01-.19-.02-.3,0-.15-.02-.31-.03-.47,0-.11-.02-.21-.03-.33-.02-.18-.03-.38-.05-.58-.01-.12-.02-.23-.04-.35-.03-.23-.06-.48-.09-.73-.01-.1-.02-.2-.04-.31-.05-.37-.11-.76-.17-1.17v-.03s-.02-.1-.02-.1v-.03c-.48-3.32-1.33-6.57-2.51-9.72-.34-.89-.69-1.78-1.08-2.65l-.11-.26c-1.75-4.26-4.01-8.54-6.72-12.75-.55-.85-1.11-1.69-1.69-2.53-.18-.26-.37-.52-.56-.78-.41-.58-.82-1.16-1.25-1.74-.22-.3-.45-.59-.67-.88-.42-.55-.84-1.1-1.27-1.64-.23-.29-.46-.58-.7-.87-.45-.56-.91-1.11-1.38-1.67-.23-.27-.45-.53-.68-.8-.51-.6-1.04-1.19-1.57-1.79-.19-.21-.38-.43-.58-.64-.64-.71-1.3-1.41-1.97-2.11-.09-.1-.19-.2-.28-.3-1.61-1.67-3.29-3.32-5.05-4.96,0,0,0,0,0,0,0,0,0,0,0,0,1.6,8.81,1.92,18.48-.36,28.88-13.75,54.55-60.43,52.02-84.18,105.02.08-46.22.06-118.18,0-191.06-.56-.39-1.14-.77-1.7-1.16-7.49-5.17-13.95-9.92-19.63-14.44h-93.73l-22.1-23.49h-16.31l22.07,23.49h-8.71l-22.1-23.49h-16.31l22.07,23.49h-8.71l-22.1-23.49H.03l22.07,23.49h0l4.55,4.94-4.55,4.94h0L0,306.6h16.34l22.07-23.49h8.74l-22.1,23.49h16.34l22.07-23.49h8.74l-22.1,23.49h16.34l22.07-23.49h105.82v213.73c0,6.41,2.75,16.44,5.21,23.93.73,2.61,1.65,5.16,2.73,7.64.49,1.24.85,2.05,1,2.27,0,0,0-.02.01-.04,7.53,15.62,21.71,27.99,39.31,31.28-35.18-19.38-38.76-69.43-7.23-95.55,14.11-11.39,37.81-23.43,50.47-33.13,12.83-9.06,23.87-21.31,30.9-35.31,0-.06,0-.14,0-.23Z"/>
    </g>
  </g>
</svg>